# xmcd
#
# Track frame offsets:
#	150
#	15800
#	33197
#	57120
#	86205
#	108820
#	126427
#	151130
#	169187
#	188405
#	204027
#	224845
#
# Disc length: 3375 seconds
#
# Revision: 0
# Processed by: cddbd v1.4b42PL1 Copyright (c) Steve Scherf et al.
# Submitted via: dBpowerAMP V4.0
#
DISCID=900d2d0c
DTITLE=Hill, Al and The Love Butlers - Willie Mae
DYEAR=1900
DGENRE=Blues
TTITLE0=Nothing I Can Do
TTITLE1=Long Way "Round
TTITLE2=One Way Ticket
TTITLE3=What's It Gonna Be
TTITLE4=Train Kept A-Rollin'
TTITLE5=Early In The Morning
TTITLE6=Willie Mae
TTITLE7=Waiting At The Station
TTITLE8=Jump Back
TTITLE9=Worried Life Blues
TTITLE10=Down The Road Apiece
TTITLE11=Skulkin'
EXTD=
EXTT0=
EXTT1=
EXTT2=
EXTT3=
EXTT4=
EXTT5=
EXTT6=
EXTT7=
EXTT8=
EXTT9=
EXTT10=
EXTT11=
PLAYORDER=
